<?xml version="1.0" encoding="UTF-8"?>
<svg xmlns="http://www.w3.org/2000/svg" xmlns:xlink="http://www.w3.org/1999/xlink" width="2251" height="2251" viewBox="0 0 2251 2251">
<path fill-rule="nonzero" fill="rgb(0%, 0%, 0%)" fill-opacity="1" d="M 170.089844 2.398438 C 101.367188 14.179688 45.765625 63.410156 27.109375 129 L 22.121094 146.410156 L 21.933594 258.941406 L 21.933594 371.46875 L 77.722656 372 L 133.511719 372.351562 L 137.207031 364.261719 C 147.367188 342.640625 167.6875 322.410156 190.960938 310.980469 C 212.390625 300.429688 216.824219 299.730469 230.863281 304.480469 C 248.96875 310.808594 262.082031 319.25 276.675781 333.839844 C 300.136719 357.578125 310.480469 384.128906 308.820312 416.660156 C 306.601562 459.039062 282.957031 493.679688 243.425781 512.488281 C 220.703125 523.21875 215.714844 523.21875 193.734375 513.191406 C 171.933594 503.171875 150.691406 483.300781 139.976562 463.429688 L 132.773438 449.71875 L 21.011719 449.71875 L 21.382812 624.140625 L 21.933594 798.75 L 76.617188 799.28125 L 131.296875 799.628906 L 139.238281 784.511719 C 152.910156 758.128906 180.0625 735.621094 208.695312 726.828125 C 217.5625 724.191406 218.855469 724.191406 227.167969 726.828125 C 276.675781 742.480469 309.1875 785.390625 309.1875 834.789062 C 309.1875 853.429688 305.308594 868.910156 296.996094 885.078125 C 283.140625 911.808594 255.988281 934.140625 226.984375 942.929688 C 217.195312 945.75 217.195312 945.75 203.523438 940.648438 C 176.738281 930.800781 153.09375 911.109375 140.714844 888.25 L 134.621094 877 L 21.011719 877 L 21.011719 1226.898438 L 137.390625 1226.898438 L 142.75 1216.710938 C 159.929688 1184.351562 195.949219 1157.449219 222.550781 1157.449219 C 238.992188 1157.449219 258.203125 1167.46875 277.96875 1186.289062 C 295.148438 1202.640625 304.753906 1218.109375 310.113281 1238.328125 C 313.621094 1251.695312 313.621094 1278.949219 310.113281 1293.546875 C 302.539062 1323.964844 277.785156 1353.328125 247.488281 1367.570312 C 225.320312 1377.945312 219.410156 1377.945312 197.613281 1367.746094 C 175.628906 1357.546875 154.570312 1338.03125 144.042969 1317.808594 L 136.835938 1304.269531 L 21.011719 1304.269531 L 21.011719 1689.347656 L 78.832031 1689.347656 L 136.46875 1689.171875 L 142.007812 1677.390625 C 155.496094 1648.90625 180.988281 1627.101562 213.5 1616.550781 C 221.996094 1613.914062 222.734375 1613.914062 234.375 1617.957031 C 267.996094 1629.5625 294.042969 1654.355469 306.972656 1687.238281 C 313.253906 1703.414062 314.730469 1733.128906 310.113281 1751.417969 C 306.046875 1767.769531 294.964844 1788.164062 283.140625 1800.648438 C 271.503906 1813.132812 250.074219 1826.847656 234.375 1831.773438 C 222.550781 1835.464844 221.8125 1835.464844 212.574219 1832.652344 C 186.160156 1824.5625 157.34375 1801.527344 144.78125 1778.496094 L 138.316406 1766.714844 L 20.828125 1766.714844 L 21.382812 1934.988281 L 21.933594 2103.4375 L 26.921875 2120.84375 C 42.996094 2176.40625 83.636719 2219.308594 139.054688 2239.003906 C 173.042969 2251.136719 107.835938 2250.257812 946.503906 2249.90625 L 1704.820312 2249.378906 L 1721.441406 2244.628906 C 1743.980469 2238.300781 1757.46875 2232.320312 1775.570312 2220.894531 C 1811.78125 2198.035156 1837.640625 2163.921875 1850.199219 2122.601562 L 1854.449219 2108.710938 L 1854.449219 141.128906 L 1850.199219 127.058594 C 1837.640625 85.738281 1811.78125 51.808594 1775.378906 28.769531 C 1757.46875 17.519531 1743.980469 11.539062 1721.441406 5.210938 L 1704.820312 0.460938 L 944.65625 0.109375 C 296.257812 -0.0703125 182.464844 0.28125 170.089844 2.398438 Z M 170.089844 2.398438 "/>
<path fill-rule="nonzero" fill="rgb(0%, 0%, 0%)" fill-opacity="1" d="M 2074.828125 350.371094 C 2047.859375 356.878906 2029.019531 373.058594 2029.019531 389.929688 C 2029.019531 392.570312 2026.621094 399.78125 2023.480469 405.941406 C 2020.519531 411.910156 2017.199219 421.058594 2016.089844 425.980469 C 2014.789062 431.960938 2014.238281 477.5 2014.609375 563.308594 L 2015.160156 691.488281 L 2020.699219 702.921875 L 2026.25 714.351562 L 2027.171875 1190.511719 L 2028.089844 1666.839844 L 2032.53125 1670.179688 C 2036.589844 1673.347656 2040.46875 1673.523438 2096.808594 1673.523438 C 2156.109375 1673.523438 2162.390625 1672.996094 2166.089844 1667.542969 C 2166.820312 1666.488281 2167.558594 1452.851562 2167.558594 1192.96875 L 2167.558594 720.328125 L 2172 712.058594 C 2182.53125 692.371094 2182.339844 693.78125 2182.339844 576.851562 L 2182.339844 469.058594 L 2213.558594 469.058594 L 2214.300781 456.21875 C 2214.480469 449.371094 2215.039062 505.28125 2215.21875 580.710938 L 2215.410156 717.859375 L 2206.359375 724.550781 L 2197.121094 731.230469 L 2205.058594 740.71875 L 2212.820312 750.21875 L 2231.851562 750.21875 L 2250.691406 750.390625 L 2250.691406 440.929688 L 2216.519531 441.28125 L 2182.339844 441.808594 L 2182.339844 436.53125 C 2182.339844 429.140625 2178.089844 415.078125 2173.480469 406.289062 C 2171.261719 402.238281 2169.410156 395.738281 2169.410156 392.050781 C 2169.410156 376.570312 2153.519531 360.21875 2131.539062 352.839844 C 2117.128906 348.089844 2089.421875 346.859375 2074.828125 350.371094 Z M 2215.039062 741.949219 C 2214.671875 746.179688 2214.300781 742.828125 2214.300781 734.570312 C 2214.300781 726.308594 2214.671875 722.960938 2215.039062 727.011719 C 2215.410156 731.230469 2215.410156 737.910156 2215.039062 741.949219 Z M 2215.039062 741.949219 "/>
<path fill-rule="nonzero" fill="rgb(0%, 0%, 0%)" fill-opacity="1" d="M 6.046875 378.328125 C 5.679688 378.679688 5.496094 392.570312 5.863281 409.101562 L 6.417969 439.171875 L 123.535156 439.171875 C 201.675781 439.171875 242.316406 438.460938 245.828125 437.230469 C 257.648438 433.019531 266.703125 420.53125 266.703125 408.398438 C 266.703125 396.269531 257.648438 383.78125 245.828125 379.558594 C 240.839844 377.621094 7.894531 376.570312 6.046875 378.328125 Z M 6.046875 378.328125 "/>
<path fill-rule="nonzero" fill="rgb(0%, 0%, 0%)" fill-opacity="1" d="M 0.691406 839.191406 L 0.691406 869.960938 L 115.777344 869.960938 C 193.917969 869.960938 233.082031 869.261719 238.070312 868.03125 C 242.132812 866.96875 248.414062 863.109375 252.109375 859.589844 C 264.484375 847.808594 265.410156 831.449219 254.507812 818.96875 C 244.71875 807.890625 250.628906 808.421875 119.84375 808.421875 L 0.691406 808.421875 Z M 0.691406 839.191406 "/>
<path fill-rule="nonzero" fill="rgb(0%, 0%, 0%)" fill-opacity="1" d="M 0.691406 1264.707031 L 0.691406 1295.480469 L 118.546875 1295.480469 C 230.125 1295.480469 236.589844 1295.304688 243.980469 1292.136719 C 257.28125 1286.335938 265.039062 1270.6875 261.34375 1257.148438 C 258.757812 1248 253.214844 1241.679688 244.347656 1237.449219 C 237.515625 1234.109375 233.082031 1233.941406 118.917969 1233.941406 L 0.691406 1233.941406 Z M 0.691406 1264.707031 "/>
<path fill-rule="nonzero" fill="rgb(0%, 0%, 0%)" fill-opacity="1" d="M 2031.421875 1686.535156 C 2031.96875 1687.765625 2042.320312 1717.832031 2054.320312 1753.351562 L 2076.121094 1817.882812 L 2095.339844 1817.355469 L 2114.550781 1816.828125 L 2134.128906 1765.835938 C 2145.03125 1737.703125 2156.480469 1707.984375 2159.621094 1699.371094 L 2165.53125 1684.070312 L 2098.109375 1684.070312 C 2041.578125 1684.070312 2030.679688 1684.425781 2031.421875 1686.535156 Z M 2031.421875 1686.535156 "/>
<path fill-rule="nonzero" fill="rgb(0%, 0%, 0%)" fill-opacity="1" d="M 0.691406 1727.152344 L 0.691406 1757.921875 L 118.917969 1757.921875 C 248.414062 1757.921875 244.902344 1758.273438 254.324219 1747.546875 C 269.472656 1730.316406 260.789062 1703.765625 238.070312 1698.316406 C 232.527344 1697.082031 192.808594 1696.378906 115.410156 1696.378906 L 0.691406 1696.378906 Z M 0.691406 1727.152344 "/>
<path fill-rule="nonzero" fill="rgb(0%, 0%, 0%)" fill-opacity="1" d="M 2085.730469 1827.726562 C 2079.449219 1828.433594 2078.890625 1828.960938 2080 1832.300781 C 2080.738281 1834.410156 2084.25 1845.136719 2087.949219 1856.214844 L 2094.589844 1876.257812 L 2103.460938 1852.519531 C 2108.269531 1839.507812 2112.140625 1828.433594 2112.140625 1827.726562 C 2112.140625 1826.496094 2098.480469 1826.496094 2085.730469 1827.726562 Z M 2085.730469 1827.726562 "/>
</svg>
